<svg id="Layer_1" data-name="Layer 1" xmlns="http://www.w3.org/2000/svg" width="1000" height="1000" viewBox="0 0 1000 1000"><defs><style>.cls-1{fill:#faf9f9;}</style></defs><title>bitballs-logo</title><path class="cls-1" d="M410.45-105c-271.9,0-493.1,221.2-493.1,493.1s221.2,493.1,493.1,493.1S903.55,660,903.55,388.06,682.34-105,410.45-105Zm396.91,493.1a397.27,397.27,0,0,1-7.48,76.76c-125.39-1.93-276.7-12.18-417.49-42.47C417,243.47,653,192.49,747.79,179.16A394.5,394.5,0,0,1,807.36,388.06Zm-102.55-266c-36.7,6.61-82.7,17.32-130.15,34.52-143.18,51.9-230.68,138.63-253.57,251q-26.39-7-51.91-15.15a587.69,587.69,0,0,1,13.88-61.95C317.23,209.36,392.56,96.31,501.71,1.76A397.21,397.21,0,0,1,704.81,122.1ZM420.1-8.73C323.26,86,255.54,196,222.42,313.44Q214.37,342,209,371c-10.79-4.3-21.42-8.75-31.79-13.44-1.56-.71-3.08-1.41-4.61-2.12,26.69-125.33.25-242.51-9.2-277.75A395,395,0,0,1,410.45-8.85Q415.29-8.85,420.1-8.73ZM110.26,128.68c8.46,44.46,17.25,118.33,4.06,196.08C72.41,299.52,46.68,276,34.36,261.09A397,397,0,0,1,110.26,128.68ZM17.4,332.83c19,16.44,45.32,35.75,81.26,55.76C83.89,435,65.81,467,52,486.88a228.68,228.68,0,0,1-19,23.92A397,397,0,0,1,17.4,332.83ZM59.21,572.74c15.24-12.52,63.3-58,96.45-155.82q21.45,9.53,44.59,18.29c-8.65,101.32,6.11,206.14,44.2,313.33A399.51,399.51,0,0,1,59.21,572.74ZM322.34,775.1C276.15,665.43,256,558.71,262,456.3q26.56,8.17,54.88,15.43c9.79,133,130.67,244,201.74,298.26A398,398,0,0,1,322.34,775.1ZM588.5,742.72C566.07,727.39,520.13,693.81,477,648.8c-39.45-41.2-82.7-98.8-94.57-161.9q10.65,2.2,21.48,4.3C514.65,512.48,641.63,524.65,782,527.51A399.18,399.18,0,0,1,588.5,742.72Z"/></svg>