<svg id="Layer_1" data-name="Layer 1" xmlns="http://www.w3.org/2000/svg" width="2034.15" height="436.76" viewBox="0 0 2034.15 436.76"><defs><style>.cls-1{fill:#101b23;}.cls-2{fill:#fff;}</style></defs><title>bitballs-logo</title><path class="cls-1" d="M238.77,13.2c-113.13,0-205.17,92-205.17,205.17s92,205.18,205.17,205.18,205.18-92,205.18-205.18S351.9,13.2,238.77,13.2ZM403.92,218.38a165.3,165.3,0,0,1-3.11,31.94c-52.17-.8-115.13-5.07-173.72-17.67,14.42-74.43,112.58-95.64,152-101.19A164.15,164.15,0,0,1,403.92,218.38ZM361.25,107.71a334.8,334.8,0,0,0-54.15,14.36c-59.57,21.6-96,57.68-105.51,104.45q-11-2.92-21.6-6.3a244.53,244.53,0,0,1,5.77-25.78C200,144,231.32,97,276.74,57.64A165.28,165.28,0,0,1,361.25,107.71ZM242.78,53.28c-40.29,39.43-68.47,85.2-82.25,134.05q-3.35,11.88-5.59,23.94c-4.49-1.79-8.91-3.64-13.23-5.59l-1.92-.88c11.1-52.15.1-100.9-3.83-115.57a164.35,164.35,0,0,1,102.81-36Q240.78,53.23,242.78,53.28ZM113.86,110.45c3.52,18.5,7.18,49.23,1.69,81.59-17.44-10.5-28.14-20.29-33.27-26.49A165.19,165.19,0,0,1,113.86,110.45ZM75.22,195.4A199.7,199.7,0,0,0,109,218.6c-6.15,19.31-13.67,32.62-19.43,40.9a95.15,95.15,0,0,1-7.9,10A165.18,165.18,0,0,1,75.22,195.4Zm17.4,99.83C99,290,119,271.1,132.75,230.39q8.93,4,18.55,7.61c-3.6,42.16,2.54,85.77,18.39,130.38A166.23,166.23,0,0,1,92.62,295.22Zm109.48,84.2c-19.22-45.63-27.61-90-25.13-132.65q11.05,3.4,22.84,6.42c4.07,55.32,54.37,101.51,83.94,124.11A165.61,165.61,0,0,1,202.1,379.42Zm110.75-13.47a304.57,304.57,0,0,1-46.38-39.08c-16.41-17.14-34.41-41.11-39.35-67.36q4.43,0.92,8.94,1.79c46.06,8.85,98.9,13.92,157.33,15.11A166.1,166.1,0,0,1,312.85,365.95Z"/><path class="cls-2" d="M645.26,61.27a192.19,192.19,0,0,1,40.19,3.89q18.15,3.89,31.12,12.75a59.34,59.34,0,0,1,20.1,23.56q7.13,14.7,7.13,36.3,0,23.34-10.59,38.9t-31.33,25.5q28.53,8.21,42.57,28.74t14,49.49q0,23.34-9.08,40.41A78.73,78.73,0,0,1,725,348.69a108.07,108.07,0,0,1-35,16,157.8,157.8,0,0,1-40.41,5.19H500V61.27H645.26Zm-8.64,124.91q18.15,0,29.82-8.64t11.67-28.09q0-10.8-3.89-17.72a28.8,28.8,0,0,0-10.37-10.81,43.81,43.81,0,0,0-14.91-5.4,99.16,99.16,0,0,0-17.5-1.51H567.9v72.18h68.72Zm3.89,131a90.6,90.6,0,0,0,19-1.95,46.7,46.7,0,0,0,16-6.48,32.68,32.68,0,0,0,11-12.32q4.1-7.78,4.11-19.88,0-23.76-13.4-33.93T641.8,232.43H567.9v84.71h72.61Z"/><path class="cls-2" d="M789.47,111.84V61.27h61.37v50.57H789.47Zm61.37,34.58V369.86H789.47V146.42h61.37Z"/><path class="cls-2" d="M1022,146.42v41.06H977V298.12q0,15.56,5.19,20.75t20.75,5.19q5.19,0,9.94-.43a84,84,0,0,0,9.08-1.3v47.54a146.48,146.48,0,0,1-17.29,1.73q-9.51.43-18.59,0.43a179.18,179.18,0,0,1-27-1.94,63.67,63.67,0,0,1-22.47-7.56,40,40,0,0,1-15.34-16q-5.62-10.37-5.62-27.23V187.48H878.51V146.42h37.17v-67H977v67H1022Z"/><path class="cls-2" d="M1203.08,61.27a192.19,192.19,0,0,1,40.19,3.89q18.15,3.89,31.12,12.75a59.34,59.34,0,0,1,20.1,23.56q7.13,14.7,7.13,36.3,0,23.34-10.59,38.9t-31.33,25.5q28.53,8.21,42.57,28.74t14,49.49q0,23.34-9.08,40.41a78.73,78.73,0,0,1-24.42,27.88,108.07,108.07,0,0,1-35,16,157.8,157.8,0,0,1-40.41,5.19H1057.86V61.27h145.22Zm-8.64,124.91q18.15,0,29.82-8.64t11.67-28.09q0-10.8-3.89-17.72a28.8,28.8,0,0,0-10.37-10.81,43.81,43.81,0,0,0-14.91-5.4,99.16,99.16,0,0,0-17.5-1.51h-63.53v72.18h68.72Zm3.89,131a90.6,90.6,0,0,0,19-1.95,46.7,46.7,0,0,0,16-6.48,32.68,32.68,0,0,0,11-12.32q4.1-7.78,4.11-19.88,0-23.76-13.4-33.93t-35.44-10.16h-73.91v84.71h72.61Z"/><path class="cls-2" d="M1345.28,215.14q1.3-21.61,10.8-35.87a73.57,73.57,0,0,1,24.2-22.91A105.53,105.53,0,0,1,1413.35,144a188.33,188.33,0,0,1,37-3.67,251.25,251.25,0,0,1,34.14,2.38A104.68,104.68,0,0,1,1516,152a62.2,62.2,0,0,1,23.34,19.23q9.08,12.32,9.08,32.63V320.16a232.92,232.92,0,0,0,1.73,29q1.72,13.84,6.05,20.75H1494a86.55,86.55,0,0,1-2.81-10.59,90.64,90.64,0,0,1-1.51-11,80,80,0,0,1-34.58,21.18,138.87,138.87,0,0,1-40.63,6.05,109.71,109.71,0,0,1-29.82-3.89,68.19,68.19,0,0,1-24.2-12.1,56.27,56.27,0,0,1-16.21-20.75q-5.83-12.53-5.83-29.82,0-19,6.7-31.33a56,56,0,0,1,17.29-19.66,77.52,77.52,0,0,1,24.2-11,260.78,260.78,0,0,1,27.44-5.84q13.83-2.16,27.23-3.46a163.9,163.9,0,0,0,23.77-3.89q10.37-2.59,16.42-7.56t5.62-14.48q0-9.94-3.24-15.78a23.84,23.84,0,0,0-8.64-9.08,34.07,34.07,0,0,0-12.53-4.32,103.22,103.22,0,0,0-15.34-1.08q-18.15,0-28.52,7.78t-12.1,25.93h-61.37ZM1487,260.52a27.43,27.43,0,0,1-9.72,5.4,99.43,99.43,0,0,1-12.53,3.24q-6.71,1.3-14,2.16T1436,273.48a110.92,110.92,0,0,0-13.61,3.46,40.35,40.35,0,0,0-11.67,5.83,27.71,27.71,0,0,0-8,9.29q-3,5.62-3,14.26a28.82,28.82,0,0,0,3,13.83A23.13,23.13,0,0,0,1411,329a34.62,34.62,0,0,0,12.1,4.54,77.17,77.17,0,0,0,14.26,1.3q18.15,0,28.09-6.05t14.69-14.48a46.33,46.33,0,0,0,5.83-17.07,117.94,117.94,0,0,0,1.08-13.83V260.52Z"/><path class="cls-2" d="M1659.05,61.27V369.86h-61.37V61.27h61.37Z"/><path class="cls-2" d="M1770.56,61.27V369.86h-61.37V61.27h61.37Z"/><path class="cls-2" d="M1863.1,314.33A35.86,35.86,0,0,0,1873.69,326a45.38,45.38,0,0,0,14.91,6.7,70,70,0,0,0,17.5,2.16,65.28,65.28,0,0,0,13.62-1.51,46.19,46.19,0,0,0,13-4.75,29.44,29.44,0,0,0,9.73-8.64q3.89-5.4,3.89-13.62,0-13.83-18.37-20.75t-51.21-13.83q-13.4-3-26.15-7.13a89.07,89.07,0,0,1-22.69-10.81,52.4,52.4,0,0,1-16-16.86q-6.06-10.15-6.05-24.85,0-21.61,8.43-35.44a62.14,62.14,0,0,1,22.26-21.83,97.6,97.6,0,0,1,31.12-11.24,191.85,191.85,0,0,1,35.44-3.24,177.27,177.27,0,0,1,35.22,3.46,93.43,93.43,0,0,1,30.47,11.67A70,70,0,0,1,1991,177.32q8.85,13.61,10.59,34.36h-58.35q-1.3-17.72-13.4-24t-28.53-6.27a105.76,105.76,0,0,0-11.24.65,37.48,37.48,0,0,0-11,2.81,22.72,22.72,0,0,0-8.43,6.27q-3.46,4.11-3.46,11a16.81,16.81,0,0,0,6.05,13.4A46.65,46.65,0,0,0,1889,224a197,197,0,0,0,22.26,5.83q12.53,2.59,25.5,5.62a261.32,261.32,0,0,1,26.15,7.35,86.2,86.2,0,0,1,22.69,11.45,55.48,55.48,0,0,1,16,17.72q6,10.6,6.05,26.15,0,22-8.86,37a70.91,70.91,0,0,1-23.12,24,94.73,94.73,0,0,1-32.63,12.75,190.59,190.59,0,0,1-37.39,3.67,185.07,185.07,0,0,1-38-3.89,100.33,100.33,0,0,1-33.06-13,74.11,74.11,0,0,1-23.77-24q-9.3-14.91-10.16-37.39H1859Q1859,307.2,1863.1,314.33Z"/></svg>